<svg width="8" height="11" viewBox="0 0 8 11" fill="none" xmlns="http://www.w3.org/2000/svg">
<path d="M6.87592 8.19305C6.28119 8.83773 5.49087 9.26882 4.62685 9.41982L4.27634 11L3.25404 10.7722L3.54613 9.45487C3.19389 9.4182 2.84813 9.33471 2.51798 9.20659L2.22589 10.5414L1.20359 10.3136L1.56577 8.67499C0.962718 8.21611 0.50361 7.59421 0.2427 6.88275C-0.0182103 6.1713 -0.0700179 5.40002 0.0933939 4.66006C0.256806 3.9201 0.62861 3.24238 1.16488 2.70697C1.70114 2.17156 2.37946 1.80083 3.11968 1.63861L3.48187 0L4.50417 0.227828L4.21208 1.56266C4.56554 1.58628 4.91427 1.65701 5.249 1.77296L5.54109 0.455656L6.56339 0.683483L6.21288 2.26368C6.64449 2.56392 7.01189 2.94721 7.29361 3.39113C7.48297 3.68193 7.63138 3.99743 7.73466 4.32873L6.09021 4.84864C6.03 4.66134 5.94762 4.4819 5.84485 4.31413C5.60513 3.93928 5.25961 3.64395 4.85201 3.46552C4.4444 3.2871 3.99302 3.23358 3.555 3.31175C3.11697 3.38992 2.71197 3.59626 2.39124 3.90466C2.07051 4.21306 1.84846 4.60967 1.7532 5.0443C1.65793 5.47893 1.69372 5.93205 1.85604 6.34634C2.01837 6.76062 2.29992 7.11745 2.6651 7.37168C3.03027 7.6259 3.46264 7.76609 3.90751 7.77452C4.35238 7.78294 4.78975 7.65923 5.16429 7.41902C5.32924 7.31137 5.48031 7.18384 5.61411 7.0393L6.88177 8.20765L6.87592 8.19305Z" fill="#F7931A"/>
</svg>
