<svg width="10" height="11" viewBox="0 0 10 11" fill="none" xmlns="http://www.w3.org/2000/svg">
<path d="M1.05281 5.5L1.05861 7.62753L2.86637 8.6913V9.93688L0.000644944 8.25612V4.87786L1.05281 5.5ZM1.05281 3.37247V4.61224L0 3.98945V2.74968L1.05281 2.12689L2.11077 2.74968L1.05281 3.37247ZM3.62132 2.74968L4.67413 2.12689L5.73209 2.74968L4.67413 3.37247L3.62132 2.74968Z" fill="#F0B90B"/>
<path d="M1.81356 7.18655V5.94098L2.86637 6.56377V7.80354L1.81356 7.18655ZM3.62132 9.13744L4.67413 9.76023L5.73209 9.13744V10.3772L4.67413 11L3.62132 10.3772V9.13744ZM7.242 2.74968L8.29481 2.12689L9.35277 2.74968V3.98945L8.29481 4.61224V3.37246L7.242 2.74968ZM8.29481 7.62753L8.30061 5.5L9.35342 4.87721V8.25548L6.48769 9.93623V8.69066L8.29481 7.62753Z" fill="#F0B90B"/>
<path d="M7.53985 7.18655L6.48705 7.80354V6.56377L7.53985 5.94098V7.18655Z" fill="#F0B90B"/>
<path d="M7.53985 3.81344L7.54566 5.05902L5.73274 6.12279V8.25548L4.67993 8.87247L3.62712 8.25548V6.12279L1.81421 5.05902V3.81344L2.87153 3.19066L4.67348 4.25958L6.4864 3.19066L7.54437 3.81344H7.53985ZM1.81356 1.68655L4.67413 0L7.53985 1.68655L6.48705 2.30934L4.67413 1.24042L2.86637 2.30934L1.81356 1.68655Z" fill="#F0B90B"/>
</svg>
