<svg width="9" height="11" viewBox="0 0 9 11" fill="none" xmlns="http://www.w3.org/2000/svg">
<path fill-rule="evenodd" clip-rule="evenodd" d="M8.28834 4.42199C8.46098 3.26621 7.58098 2.64489 6.37769 2.2304L6.76802 0.66475L5.81473 0.427242L5.43472 1.95163C5.18445 1.8892 4.92713 1.8303 4.67144 1.77194L5.05416 0.237508L4.10169 0L3.71109 1.56511C3.50371 1.51788 3.30014 1.47119 3.10253 1.42206L3.10362 1.41717L1.78932 1.08901L1.53579 2.1069C1.53579 2.1069 2.24289 2.26895 2.22796 2.27899C2.61394 2.37535 2.68397 2.63077 2.67203 2.83326L2.22742 4.61688C2.25402 4.62366 2.28849 4.63344 2.32649 4.64864L2.22606 4.62366L1.60257 7.12225C1.55534 7.23951 1.43563 7.4154 1.16582 7.34862C1.17532 7.36247 0.473115 7.17572 0.473115 7.17572L0 8.2669L1.24047 8.57606C1.38051 8.61116 1.51884 8.64725 1.65566 8.68294C1.74426 8.70606 1.83223 8.72901 1.91961 8.75141L1.52521 10.3352L2.47714 10.5728L2.86801 9.00602C3.12777 9.0766 3.38021 9.14174 3.62722 9.20308L3.23798 10.7625L4.19099 11L4.58539 9.41942C6.21049 9.72696 7.43277 9.60291 7.9466 8.13335C8.36109 6.94988 7.92624 6.26722 7.07122 5.82179C7.69389 5.67766 8.16321 5.26806 8.28834 4.42199ZM6.1106 7.47539C5.84005 8.56158 4.1395 8.11215 3.36212 7.9067C3.29251 7.8883 3.23029 7.87186 3.17717 7.85865L3.70051 5.76072C3.76543 5.77692 3.84474 5.79472 3.93459 5.81488C4.73882 5.99535 6.38674 6.3652 6.1106 7.47539ZM4.09626 4.84136C4.74491 5.01441 6.1588 5.39161 6.40511 4.40489C6.65692 3.39543 5.28206 3.09118 4.61059 2.94259C4.53511 2.92588 4.46851 2.91114 4.41412 2.89759L3.93964 4.80037C3.98454 4.81155 4.03723 4.82561 4.09626 4.84136Z" fill="#F7931A"/>
</svg>
