<svg width="11" height="11" viewBox="0 0 11 11" fill="none" xmlns="http://www.w3.org/2000/svg">
<path fill-rule="evenodd" clip-rule="evenodd" d="M5.2388 0H1.98507V4.32143H-3.8147e-06V5.7619H1.98507V10.0833H5.2388C6.95622 10.0833 7.32628 9.90347 8.0664 9.54376C8.12386 9.51583 8.18354 9.48682 8.24627 9.45673C9.11692 9.03899 9.79353 8.4508 10.2761 7.69214C10.7587 6.93349 11 6.05 11 5.04167C11 4.03333 10.7587 3.14985 10.2761 2.39119C9.79353 1.63254 9.11692 1.04435 8.24627 0.626607C7.37561 0.208867 6.37314 0 5.2388 0ZM4.40298 5.7619V8.1675H5.1194C6.16418 8.1675 6.99751 7.88661 7.6194 7.32482C8.24129 6.76303 8.55224 6.00199 8.55224 5.04167C8.55224 4.08134 8.24129 3.3203 7.6194 2.75851C6.99751 2.19672 6.16418 1.91583 5.1194 1.91583H4.40298V4.32143H6.71641V5.7619H4.40298Z" fill="#C2A633"/>
</svg>
