<svg width="10" height="11" viewBox="0 0 10 11" fill="none" xmlns="http://www.w3.org/2000/svg">
<path fill-rule="evenodd" clip-rule="evenodd" d="M9.20996 2.89615L8.97207 2.72746C8.60294 2.46576 8.21811 2.19293 7.84015 1.92183C7.82999 1.9141 7.81982 1.90637 7.80712 1.89864C7.75629 1.85997 7.69784 1.81873 7.62668 1.79553L7.6216 1.79296C6.49902 1.51773 5.35951 1.23606 4.24943 0.961659L3.93151 0.883078C3.38277 0.747804 2.83467 0.612531 2.28656 0.477258C1.73825 0.341934 1.18937 0.20647 0.640428 0.0711462C0.612472 0.0634135 0.584517 0.0556809 0.554021 0.0479482C0.454907 0.019595 0.340545 -0.0113357 0.218559 0.00412965C0.182979 0.00928477 0.152483 0.0221726 0.124528 0.0402155L0.094031 0.0659911C0.0457448 0.112387 0.020331 0.171671 0.00762414 0.205179L0 0.2258V0.344368L0.00508276 0.36241C0.526741 1.84501 1.05846 3.34364 1.58186 4.81885C1.75455 5.30558 1.92642 5.78997 2.09664 6.27018L2.57198 7.60932C2.95008 8.67431 3.33339 9.75395 3.71041 10.8196C3.74345 10.9227 3.83748 10.9897 3.95439 11H3.9798C4.08908 11 4.18565 10.9459 4.23394 10.8582L6.24671 7.88115C6.49195 7.51901 6.7372 7.15621 6.98244 6.79342C7.22768 6.43063 7.47293 6.06784 7.71817 5.70569C7.81855 5.55748 7.91894 5.40863 8.01932 5.25977C8.11971 5.11092 8.22009 4.96207 8.32048 4.81386L8.36183 4.75256C8.67923 4.28204 9.00548 3.7984 9.3294 3.3266L9.34719 3.30083V3.2699C9.35482 3.17968 9.35736 2.9941 9.20996 2.89615ZM6.85156 3.9813C6.67518 4.07459 6.49739 4.16896 6.31858 4.26387C6.01821 4.4233 5.71485 4.58432 5.4106 4.74426L6.25942 3.8215C6.56702 3.48483 6.88618 3.13839 7.2018 2.79579L7.34204 2.64355L7.34967 2.63582C7.38017 2.59458 7.41829 2.55591 7.45895 2.51467L7.48007 2.49357C7.50183 2.47199 7.52431 2.44968 7.54535 2.42446C7.73342 2.55591 7.92402 2.68995 8.107 2.8214C8.23915 2.91677 8.37385 3.01214 8.51108 3.10751C7.95198 3.3962 7.39287 3.69262 6.85156 3.9813ZM4.52365 5.07161C4.89724 4.66694 5.27336 4.2571 5.63678 3.85758L5.95707 3.5084C6.33336 3.09809 6.71648 2.68032 7.09807 2.26723C6.36101 2.08549 5.62331 1.90376 4.88561 1.72203C4.14804 1.54032 3.41047 1.35862 2.67353 1.17692C2.41177 1.1099 2.14492 1.04546 1.88824 0.983602C1.59599 0.914008 1.29864 0.841837 1.00384 0.76451C1.01896 0.783069 1.03408 0.801376 1.04912 0.819588C1.08211 0.859548 1.11474 0.899063 1.14616 0.939784C1.16898 0.967885 1.1918 0.996517 1.2147 1.02525C1.26322 1.08614 1.31211 1.14749 1.36218 1.20527L1.36472 1.20785L2.34315 2.40126C3.05982 3.27505 3.79936 4.17978 4.52365 5.07161ZM4.35847 8.88125L4.38201 8.65586C4.40285 8.45751 4.42393 8.25684 4.44233 8.059L4.4652 7.83881C4.48045 7.69159 4.4957 7.54437 4.51095 7.40173L4.52702 7.24738C4.55774 6.95286 4.5892 6.65125 4.61514 6.35524L4.62277 6.29338C4.64818 6.07171 4.6736 5.8423 4.68884 5.6129C4.7168 5.59743 4.7473 5.58197 4.78033 5.56908C4.78986 5.56457 4.7994 5.56022 4.80893 5.55587C4.83752 5.54282 4.86611 5.52977 4.8947 5.51238C5.48176 5.20049 6.06881 4.88861 6.65841 4.5793C7.24547 4.26999 7.84778 3.95037 8.445 3.63333C7.90115 4.43238 7.35475 5.23915 6.82615 6.02531L6.528 6.4664C6.16817 6.99885 5.80258 7.53982 5.43855 8.07447C5.3351 8.22893 5.22922 8.38505 5.12412 8.54001C5.04332 8.65914 4.96295 8.77763 4.88453 8.89413C4.68122 9.19313 4.47283 9.49986 4.26952 9.80659C4.29493 9.49728 4.32543 9.1854 4.35847 8.88125ZM0.78218 1.27945C0.793475 1.31067 0.80477 1.34188 0.815783 1.37281C1.39022 2.99519 1.96465 4.61527 2.53908 6.23535C2.82618 7.04505 3.11327 7.85475 3.40037 8.66473L3.67229 9.43027C3.70787 9.53595 3.74599 9.6442 3.78411 9.74731C3.789 9.7612 3.79427 9.77547 3.79963 9.78997C3.80818 9.81316 3.81696 9.83694 3.82478 9.86072C3.83516 9.76246 3.84501 9.6642 3.85482 9.56643C3.86662 9.44875 3.87836 9.33177 3.89085 9.21633C3.89552 9.17173 3.9002 9.12702 3.90489 9.0822C3.95391 8.61411 4.00413 8.13465 4.04588 7.65948L4.04842 7.64144C4.04842 7.64144 4.08908 7.28574 4.10687 7.12851C4.10976 7.10274 4.11277 7.07685 4.1158 7.05085C4.12611 6.9624 4.13656 6.87275 4.14245 6.78311V6.78053C4.16278 6.59753 4.18057 6.4171 4.19836 6.23667C4.20961 6.13294 4.22045 6.02754 4.23137 5.92131C4.24759 5.76357 4.264 5.604 4.28222 5.44536C4.21273 5.36726 4.14741 5.28635 4.08317 5.20678C4.06048 5.17868 4.03793 5.15074 4.01538 5.12316C3.9493 5.04068 3.88069 4.95562 3.81207 4.87572C3.57995 4.59046 3.34784 4.3075 3.11572 4.02454C2.99967 3.88306 2.88362 3.74159 2.76756 3.59983C2.0941 2.78016 1.40284 1.93472 0.716669 1.09444C0.737 1.15458 0.75959 1.21702 0.78218 1.27945Z" fill="#FF060A"/>
</svg>
