<svg width="11" height="10" viewBox="0 0 11 10" fill="none" xmlns="http://www.w3.org/2000/svg">
<path d="M4.3601 4.2188V1.97063H1.31088V0H9.83161V1.99838H6.78238V4.2188H4.3601Z" fill="#00A478"/>
<path fill-rule="evenodd" clip-rule="evenodd" d="M0 4.4686C0 3.71921 2.45078 3.10859 5.5 3.10859C8.54922 3.10859 11 3.71921 11 4.4686C11 5.21799 8.54922 5.82861 5.5 5.82861C2.45078 5.82861 0 5.21799 0 4.4686ZM10.544 4.4686C10.3446 4.19105 8.69171 3.33063 5.5 3.33063C2.30829 3.33063 0.65544 4.16329 0.455959 4.4686C0.65544 4.74615 2.30829 5.16248 5.5 5.16248C8.72021 5.16248 10.3446 4.74615 10.544 4.4686Z" fill="#00A478"/>
<path d="M6.78238 4.9127V3.3584C6.38342 3.33065 5.95596 3.30289 5.5285 3.30289C5.12953 3.30289 4.75907 3.30289 4.3886 3.33065V4.88494C4.73057 4.88494 5.12953 4.9127 5.5285 4.9127C5.95596 4.94045 6.38342 4.94045 6.78238 4.9127Z" fill="#00A478"/>
<path d="M5.5 5.82861C5.10104 5.82861 4.73057 5.82862 4.3601 5.80087V9.93641H6.75388V5.77311C6.35492 5.80087 5.92746 5.82861 5.5 5.82861Z" fill="#00A478"/>
</svg>
