<svg width="11" height="11" viewBox="0 0 11 11" fill="none" xmlns="http://www.w3.org/2000/svg">
<path d="M6.94095 0.295941C6.19511 0.720542 5.75349 1.4873 5.75349 2.29585C5.75349 2.72045 5.92944 3.14835 6.14971 3.53011C6.32565 3.87111 6.41192 4.46627 5.79782 4.76437C5.3596 5.01847 4.7863 4.84907 4.52408 4.42337C4.26181 4.08237 3.95419 3.74137 3.55797 3.48721C2.81213 3.06261 1.93228 3.06261 1.18639 3.48721C0.440489 3.91181 0 4.68049 0 5.48927C0 6.29804 0.438219 7.06453 1.18622 7.49028C1.93206 7.91488 2.8119 7.91488 3.5578 7.49028C3.95402 7.27688 4.26158 6.93808 4.47964 6.55412C4.65559 6.25602 5.13921 5.87212 5.75338 6.21312C6.19159 6.46722 6.32327 7.02278 6.10527 7.44738C5.88505 7.83128 5.75338 8.25704 5.75338 8.68164C5.75338 9.49129 6.19159 10.2569 6.94084 10.6816C7.68668 11.1062 8.56652 11.1062 9.31242 10.6816C10.0583 10.2569 10.5 9.49019 10.5 8.68164C10.5 7.87308 10.0606 7.10638 9.31253 6.68062C8.91632 6.46722 8.47696 6.38252 7.99447 6.38252C7.59825 6.38252 7.07263 6.12842 7.07263 5.48927C7.07263 4.97777 7.46885 4.59601 7.99447 4.59601C8.43269 4.59601 8.91632 4.51131 9.31253 4.29791C10.0584 3.87331 10.5 3.10655 10.5 2.29805C10.5 1.48955 10.0606 0.722797 9.31253 0.298141C8.96064 0.0847408 8.52237 4.06748e-05 8.12632 4.06748e-05C7.73237 -0.00215933 7.29075 0.0847408 6.94112 0.295941" fill="#1276A7"/>
</svg>
