<svg width="139" height="31" viewBox="0 0 139 31" fill="none" xmlns="http://www.w3.org/2000/svg">
<g clip-path="url(#clip0_1454_348)">
<path d="M-0.125732 11.3315H8.83628C11.0606 11.3315 12.7426 11.9024 13.8825 13.0441C14.7647 13.9282 15.2056 15.0241 15.2056 16.3314V16.3867C15.2056 16.9391 15.1374 17.4273 15 17.8507C14.8629 18.2746 14.6797 18.6562 14.4508 18.9969C14.2224 19.3379 13.9568 19.6372 13.655 19.8947C13.3529 20.1527 13.0283 20.3739 12.6806 20.5577C13.7987 20.9816 14.6789 21.5568 15.3205 22.2843C15.9619 23.0121 16.2831 24.0204 16.2831 25.3092V25.3643C16.2831 26.2485 16.1131 27.0218 15.773 27.685C15.4329 28.3478 14.9456 28.9004 14.3111 29.3425C13.6766 29.7846 12.9136 30.1159 12.022 30.337C11.1303 30.5579 10.1421 30.6683 9.05776 30.6683H-0.125732V11.3315ZM7.94028 19.149C8.87977 19.149 9.62572 18.9883 10.1778 18.6657C10.7302 18.3434 11.0064 17.823 11.0064 17.105V17.0497C11.0064 16.4054 10.7668 15.9129 10.2881 15.5719C9.80918 15.2312 9.11853 15.0607 8.21649 15.0607H4.01758V19.149H7.94028ZM9.07303 26.9394C10.0122 26.9394 10.7484 26.7695 11.2829 26.4285C11.8169 26.0877 12.0842 25.5581 12.0842 24.8398V24.7848C12.0842 24.1402 11.8353 23.6293 11.3382 23.2514C10.8408 22.8744 10.0399 22.6855 8.93478 22.6855H4.01758V26.9397H9.07303V26.9394Z" fill="#84CC16"/>
<path d="M21.6204 11.3315H25.8748V30.6688H21.6204V11.3315Z" fill="#84CC16"/>
<path d="M32.3186 11.3315H36.2407L45.3018 23.2379V11.3315H49.5007V30.6688H45.8822L36.5172 18.376V30.6688H32.3186V11.3315Z" fill="#84CC16"/>
<path d="M62.3806 11.1938H66.303L74.5908 30.6691H70.143L68.375 26.3322H60.1981L58.4303 30.6691H54.0925L62.3806 11.1938ZM66.8557 22.5749L64.2864 16.3043L61.7179 22.5749H66.8557Z" fill="#84CC16"/>
<path d="M79 11H82.923L91.9835 22.9063V11H96.1824V30.3373H92.5638L83.1989 18.0444V30.3373H79V11Z" fill="#84CC16"/>
<path d="M111.676 31C110.257 31 108.941 30.7419 107.726 30.2267C106.51 29.7114 105.46 29.0067 104.576 28.1133C103.692 27.2202 103.001 26.1657 102.505 24.9503C102.007 23.7347 101.759 22.4363 101.759 21.055V21C101.759 19.6187 102.007 18.3252 102.505 17.1188C103.002 15.9126 103.692 14.8536 104.576 13.942C105.46 13.0305 106.519 12.3119 107.753 11.7871C108.986 11.2624 110.35 11 111.842 11C112.744 11 113.567 11.074 114.313 11.2209C115.059 11.3687 115.736 11.5708 116.344 11.8286C116.952 12.0867 117.513 12.3997 118.03 12.7678C118.544 13.1365 119.024 13.5414 119.466 13.9835L116.759 17.1049C116.003 16.4238 115.235 15.8893 114.452 15.5027C113.669 15.1162 112.79 14.9227 111.814 14.9227C111.003 14.9227 110.253 15.0794 109.563 15.3924C108.872 15.7055 108.278 16.1381 107.781 16.6905C107.284 17.2429 106.897 17.8832 106.62 18.6104C106.344 19.3382 106.207 20.1161 106.207 20.9447V20.9997C106.207 21.8283 106.344 22.6114 106.62 23.3476C106.897 24.0846 107.278 24.7289 107.767 25.2813C108.255 25.8337 108.844 26.2714 109.534 26.5937C110.226 26.9163 110.985 27.077 111.814 27.077C112.919 27.077 113.853 26.8745 114.617 26.4693C115.382 26.0647 116.142 25.512 116.897 24.8118L119.604 27.5468C119.107 28.081 118.59 28.56 118.057 28.9831C117.523 29.407 116.938 29.7705 116.302 30.0746C115.667 30.3782 114.972 30.6089 114.217 30.765C113.462 30.9214 112.615 31 111.676 31Z" fill="#84CC16"/>
<path d="M124.611 11.3315H139.169V15.1163H128.81V19.039H137.926V22.8234H128.81V26.8844H139.307V30.6688H124.611V11.3315Z" fill="#84CC16"/>
</g>
<defs>
<clipPath id="clip0_1454_348">
<rect width="139" height="31" fill="white"/>
</clipPath>
</defs>
</svg>
