<svg width="22" height="22" viewBox="0 0 22 22" fill="none" xmlns="http://www.w3.org/2000/svg">
<path d="M19.9879 8.93055C19.9879 10.4589 17.2001 11.6979 13.7613 11.6979C10.3225 11.6979 7.53473 10.4589 7.53473 8.93055M19.9879 8.93055C19.9879 7.40217 17.2001 6.16318 13.7613 6.16318C10.3225 6.16318 7.53473 7.40217 7.53473 8.93055M19.9879 8.93055L19.9879 17.2326C19.9879 18.7547 17.2205 20 13.7613 20C10.3021 20 7.53473 18.7547 7.53473 17.2326L7.53473 8.93055M19.9879 13.0816C19.9879 14.6036 17.2205 15.8489 13.7613 15.8489C10.3021 15.8489 7.53473 14.6036 7.53473 13.0816M13.6229 3.39582C12.0061 2.39802 10.124 1.91545 8.22657 2.01214C4.7812 2.01214 2 3.25746 2 4.77951M2 4.77951C2 5.59588 2.80254 6.32923 4.07552 6.85503M2 4.77951V13.0816C2 13.898 2.80254 14.6313 4.07552 15.1571M4.07552 11.0061C2.80254 10.4803 2 9.74693 2 8.93056" stroke="#434D48" stroke-width="2.3" stroke-linecap="round" stroke-linejoin="round"/>
</svg>
