<svg width="151" height="27" viewBox="0 0 151 27" fill="none" xmlns="http://www.w3.org/2000/svg">
<path d="M30.5895 7.53788C25.0987 7.53788 20.8084 11.7061 20.8084 17.2861C20.8084 22.8661 24.9903 26.9986 30.5895 26.9986C36.1887 26.9986 40.4434 22.7948 40.4434 17.2504C40.4434 11.7418 36.2614 7.53788 30.5895 7.53788ZM30.6265 22.9772C27.4997 22.9772 25.2084 20.5488 25.2084 17.2875C25.2084 13.9891 27.4627 11.562 30.5895 11.562C33.7534 11.562 36.0433 14.0262 36.0433 17.2875C36.0433 20.5488 33.7534 22.9772 30.6265 22.9772ZM41.6425 11.7788H44.3701V26.6378H48.7331V7.9001H41.6425V11.7788ZM9.82808 11.5606C12.1194 11.5606 13.9373 12.9738 14.6274 15.0758H19.2456C18.4087 10.5824 14.7001 7.53788 9.86512 7.53788C4.37429 7.53788 0.0839844 11.7061 0.0839844 17.2875C0.0839844 22.8688 4.2659 27 9.86512 27C14.5917 27 18.373 23.9555 19.21 19.4251H14.6274C13.973 21.527 12.155 22.9772 9.86375 22.9772C6.69987 22.9772 4.48268 20.5488 4.48268 17.2875C4.48406 13.9891 6.66557 11.5606 9.82808 11.5606ZM124.543 15.475L121.343 15.0044C119.816 14.7876 118.725 14.28 118.725 13.0836C118.725 11.7788 120.144 11.1271 122.07 11.1271C124.179 11.1271 125.525 12.0326 125.816 13.5185H130.034C129.56 9.74958 126.652 7.53926 122.18 7.53926C117.562 7.53926 114.508 9.89501 114.508 13.229C114.508 16.4176 116.508 18.2671 120.543 18.8461L123.743 19.3167C125.307 19.5335 126.18 20.1509 126.18 21.3102C126.18 22.7961 124.653 23.4122 122.544 23.4122C119.962 23.4122 118.507 22.3612 118.289 20.7669H113.999C114.399 24.4275 117.271 27 122.507 27C127.27 27 130.433 24.8253 130.433 21.0921C130.433 17.7581 128.143 16.0183 124.543 15.475ZM46.5516 0.181107C44.9518 0.181107 43.7513 1.34046 43.7513 2.93475C43.7513 4.52904 44.9504 5.6884 46.5516 5.6884C48.1514 5.6884 49.3519 4.52904 49.3519 2.93475C49.3519 1.34046 48.1514 0.181107 46.5516 0.181107ZM110.581 14.3157C110.581 10.2572 108.109 7.53926 102.873 7.53926C97.9283 7.53926 95.165 10.0405 94.619 13.8821H98.9463C99.1645 12.3962 100.328 11.1641 102.8 11.1641C105.019 11.1641 106.11 12.1424 106.11 13.3388C106.11 14.8974 104.109 15.2953 101.637 15.5491C98.2919 15.9113 94.147 17.0707 94.147 21.42C94.147 24.791 96.6564 26.9643 100.656 26.9643C103.783 26.9643 105.746 25.6595 106.728 23.5933C106.874 25.4414 108.255 26.6378 110.183 26.6378H112.728V22.7605H110.582V14.3157H110.581ZM106.291 19.0272C106.291 21.5284 104.109 23.3765 101.454 23.3765C99.8176 23.3765 98.4359 22.6877 98.4359 21.2389C98.4359 19.3908 100.654 18.8831 102.691 18.6663C104.654 18.4852 105.745 18.0503 106.291 17.2161V19.0272ZM83.1297 7.53788C80.693 7.53788 78.6569 8.55318 77.2025 10.2559V0H72.8395V26.6378H77.1298V24.1736C78.5842 25.949 80.6573 27 83.1297 27C88.3653 27 92.3291 22.8688 92.3291 17.2875C92.3291 11.7061 88.2926 7.53788 83.1297 7.53788ZM82.4752 22.9772C79.3484 22.9772 77.0571 20.5488 77.0571 17.2875C77.0571 14.0262 79.3841 11.562 82.5109 11.562C85.6748 11.562 87.892 13.9905 87.892 17.2875C87.892 20.5488 85.6021 22.9772 82.4752 22.9772ZM62.4039 7.53788C59.568 7.53788 57.713 8.69724 56.6222 10.3286V7.9001H52.2949V26.6364H56.6579V16.4533C56.6579 13.5899 58.4758 11.5606 61.1664 11.5606C63.6758 11.5606 65.2385 13.336 65.2385 15.91V26.6378H69.6015V15.5848C69.6029 10.8719 67.1676 7.53788 62.4039 7.53788ZM151.231 16.6714C151.231 11.3082 147.305 7.53926 142.032 7.53926C136.433 7.53926 132.323 11.7431 132.323 17.2875C132.323 23.1227 136.724 27 142.105 27C146.65 27 150.213 24.3177 151.122 20.5131H146.576C145.922 22.1801 144.322 23.1227 142.176 23.1227C139.376 23.1227 137.267 21.3829 136.795 18.3384H151.23V16.6714H151.231ZM137.05 15.2212C137.742 12.6116 139.705 11.3439 141.959 11.3439C144.432 11.3439 146.322 12.7571 146.759 15.2212H137.05Z" fill="#84CC16"/>
</svg>
