<svg width="85" height="31" viewBox="0 0 85 31" fill="none" xmlns="http://www.w3.org/2000/svg">
<g clip-path="url(#clip0_1454_342)">
<path d="M4.7209 27.0053V22.5919H13.6594V19.1562H4.7209V15.0221H14.8606V11.4746H0.307495V14.7986V30.5528H15.2237V27.0053H4.7209Z" fill="#84CC16"/>
<path d="M57.4025 30.5528L57.3746 19.1003L51.7042 28.5416H49.693L44.0505 19.3517V30.5528H39.8606V11.4746H43.5477L50.7544 23.3182L57.8494 11.4746H61.5086L61.5645 30.5528H57.4025Z" fill="#84CC16"/>
<path d="M75.0002 11C69.4136 11 64.9164 15.4693 64.9164 21C64.9164 26.5307 69.4415 31 75.0002 31C80.5868 31 85.084 26.5307 85.084 21C85.084 15.4972 80.5588 11 75.0002 11ZM75.0002 14.8268C78.4359 14.8268 81.2292 17.5922 81.2292 21C81.2292 24.4078 78.4359 27.1732 75.0002 27.1732C71.5644 27.1732 68.7711 24.4078 68.7711 21C68.7711 17.5922 71.5365 14.8268 75.0002 14.8268Z" fill="#84CC16"/>
<path d="M37.0114 11.4746H32.0672L27.5142 17.6757H27.4862L25.0281 20.9997L17.989 30.5528H22.9332L27.5142 24.3517L32.0672 30.5528H37.0114L29.9723 20.9997L37.0114 11.4746Z" fill="#84CC16"/>
<path d="M25.9499 15.5528L22.9332 11.4746H17.989L23.4918 18.9048L25.9499 15.5528Z" fill="#84CC16"/>
</g>
<defs>
<clipPath id="clip0_1454_342">
<rect width="85" height="31" fill="white"/>
</clipPath>
</defs>
</svg>
